<svg xmlns="http://www.w3.org/2000/svg" width="30" height="16" viewBox="0 0 30 16">
    <defs>
        <style>
            .cls-2{fill:#f69e1b}.cls-5{fill:#0e0e0d}.cls-6{fill:#131312}
        </style>
    </defs>
    <g id="Mastercard_Icon">
        <g id="Rectangle_133" fill="none" stroke="#e8eaeb" stroke-width="2px">
            <rect width="30" height="16" stroke="none" rx="2"/>
            <rect width="28" height="14" x="1" y="1" rx="1"/>
        </g>
        <g id="Xoo2E2" transform="translate(-437.127 -1127.734)">
            <g id="Group_385" transform="translate(446.127 1130.734)">
                <path id="Path_87" d="M562.123 1131.536a3.921 3.921 0 0 1 2.43-.8 3.82 3.82 0 0 1 .91 7.515 3.7 3.7 0 0 1-3.213-.586 1.418 1.418 0 0 0-.138-.079v-.085a.755.755 0 0 0 .418-.3 3.752 3.752 0 0 0 1.006-2.058 3.8 3.8 0 0 0-.446-2.455 4.971 4.971 0 0 0-.967-1.152z" class="cls-2" transform="translate(-555.923 -1130.734)"/>
                <path id="Path_88" fill="#ea021e" d="M452.311 1137.545v.085a3.831 3.831 0 1 1-.041-6.056.463.463 0 0 1-.067.109 3.793 3.793 0 0 0-1.331 3.13 3.668 3.668 0 0 0 .853 2.208 1.536 1.536 0 0 0 .586.524z" transform="translate(-446.127 -1130.78)"/>
                <path id="Path_89" fill="#fc5f02" d="M536.543 1151.611a1.537 1.537 0 0 1-.582-.524 3.668 3.668 0 0 1-.853-2.208 3.793 3.793 0 0 1 1.331-3.13.466.466 0 0 0 .068-.109l.052.008a4.968 4.968 0 0 1 .962 1.147 3.8 3.8 0 0 1 .447 2.455 3.752 3.752 0 0 1-1.006 2.058.756.756 0 0 1-.419.303z" transform="translate(-530.359 -1144.846)"/>
                <path id="Path_90" d="M458.235 1291.218a1.9 1.9 0 0 1 0-.213c.017-.142-.089-.426.244-.224a.458.458 0 0 1 .6.044c.011.009.07-.04.107-.061a.405.405 0 0 1 .652.374v.479c0 .074-.021.114-.1.117s-.124-.034-.122-.124v-.479a.206.206 0 0 0-.205-.231.221.221 0 0 0-.254.214c-.015.158-.008.319-.009.479 0 .076 0 .139-.108.141s-.116-.052-.115-.133v-.453c0-.153-.061-.247-.216-.248a.231.231 0 0 0-.248.252v.4c0 .082.03.187-.119.183-.132 0-.1-.1-.1-.171-.01-.115-.007-.231-.007-.346z" class="cls-5" transform="translate(-457.588 -1282.157)"/>
                <path id="Path_91" d="M648.457 1284.26v.557c0 .067.009.185-.086.148-.177-.069-.327.036-.489.027a.524.524 0 0 1-.475-.613.487.487 0 0 1 .607-.435c.254.094.23-.035.222-.194v-.106c-.006-.085.04-.1.114-.1s.111.028.109.108c-.004.202-.002.405-.002.608zm-.552.521a.291.291 0 0 0 .334-.292.287.287 0 0 0-.277-.347.275.275 0 0 0-.319.276.3.3 0 0 0 .262.363z" class="cls-6" transform="translate(-636.668 -1275.396)"/>
                <path id="Path_92" d="M493.135 1291.219a.583.583 0 0 1 0 .159c-.041.138.147.5-.27.288-.018-.009-.058.036-.091.048a.478.478 0 0 1-.589-.171.561.561 0 0 1 .014-.669.472.472 0 0 1 .572-.153.152.152 0 0 1 .047.025c.094.085.279-.193.318.075a2.78 2.78 0 0 1 0 .4zm-.214 0c-.024-.2-.118-.331-.323-.32a.319.319 0 0 0 .02.637c.212-.003.282-.142.303-.318z" class="cls-6" transform="translate(-489.628 -1282.153)"/>
                <path id="Path_93" d="M609.944 1291.205c0 .071.005.142 0 .213-.013.151.081.424-.253.232-.022-.013-.075.032-.114.046a.467.467 0 0 1-.586-.179.528.528 0 0 1 .007-.646.456.456 0 0 1 .586-.167.2.2 0 0 1 .046.025c.094.072.277-.2.312.077a3.305 3.305 0 0 1 .002.399zm-.216-.018c-.02-.189-.113-.32-.316-.308a.287.287 0 0 0-.286.339.28.28 0 0 0 .3.3c.209-.003.29-.136.302-.331z" class="cls-6" transform="translate(-600.205 -1282.133)"/>
                <path id="Path_94" d="M554.038 1291.306c.1.278.288.267.48.2.091-.033.148-.047.19.051s-.055.117-.109.139a.573.573 0 0 1-.6-.052.532.532 0 0 1-.176-.574.46.46 0 0 1 .37-.373.453.453 0 0 1 .478.153.416.416 0 0 1 .112.392c-.048.141-.2.052-.3.062-.143.011-.283.002-.445.002zm.512-.194c-.038-.156-.114-.226-.248-.224s-.215.079-.262.224z" class="cls-6" transform="translate(-548.062 -1282.152)"/>
                <path id="Path_95" d="M516.769 1291.726a.743.743 0 0 1-.322-.053c-.062-.03-.149-.041-.1-.143.034-.075.08-.094.168-.055a.788.788 0 0 0 .284.044c.069 0 .158-.01.168-.1s-.078-.1-.146-.12c-.086-.02-.174-.028-.259-.052a.267.267 0 0 1-.216-.268.3.3 0 0 1 .2-.284.723.723 0 0 1 .519.01c.053.018.129.032.083.125-.03.061-.06.1-.14.078-.141-.044-.359-.129-.4.036-.043.194.206.11.322.153.166.062.3.138.266.335-.041.268-.254.283-.427.294z" class="cls-6" transform="translate(-512.588 -1282.128)"/>
                <path id="Path_96" d="M535.763 1286.241c0 .216-.02.416.271.333.1-.028.1.048.118.1.025.074-.042.086-.087.106a.355.355 0 0 1-.525-.322c-.006-.079 0-.159 0-.239a.573.573 0 0 1 0-.132c.042-.177-.292-.06-.2-.253.045-.1.269-.058.2-.259-.022-.068.016-.117.1-.115.068 0 .131.007.118.1-.027.186.065.234.23.216.073-.008.142-.005.137.1 0 .09-.059.1-.123.093-.267-.045-.255.131-.239.272z" class="cls-5" transform="translate(-530.566 -1277.211)"/>
                <path id="Path_97" d="M590.43 1290.687a.971.971 0 0 1 .146.035c.069.026.173.035.131.152-.033.093-.1.1-.19.06a.29.29 0 0 0-.4.1.322.322 0 0 0 0 .374.3.3 0 0 0 .4.1c.1-.04.149-.032.185.061.046.123-.067.135-.13.152a.558.558 0 0 1-.609-.14.533.533 0 0 1-.085-.594.524.524 0 0 1 .552-.3z" class="cls-6" transform="translate(-582.169 -1282.159)"/>
                <path id="Path_98" d="M576.464 1291.2v-.186c.005-.172-.065-.413.27-.272.054.022.143-.052.219-.066.059-.011.141-.007.143.074 0 .062-.014.151-.118.141-.263-.026-.283.148-.284.34v.372c0 .07-.017.116-.1.12s-.127-.035-.125-.124v-.4z" class="cls-6" transform="translate(-569.512 -1282.141)"/>
                <path id="Path_99" d="M634.176 1291.253v-.027c0-.5 0-.5.482-.508.058 0 .145-.012.144.072s-.018.157-.14.145c-.22-.022-.268.12-.265.3v.371c0 .08.009.161-.117.157s-.1-.094-.1-.168v-.344z" class="cls-5" transform="translate(-624.15 -1282.188)"/>
                <path id="Path_100" d="M674.165 1307.9a.089.089 0 0 1-.074.093.087.087 0 0 1-.109-.082c-.006-.06.039-.093.1-.092s.072.036.083.081z" class="cls-2" transform="translate(-661.833 -1298.378)"/>
            </g>
        </g>
    </g>
</svg>
