<svg xmlns="http://www.w3.org/2000/svg" width="16.253" height="16" viewBox="0 0 16.253 16">
    <g>
        <path fill="#fff" d="M217.744 1193.03a1.2 1.2 0 0 0-1.2 1.2v14.116a.682.682 0 0 0 .674.68.659.659 0 0 0 .409-.138l1.625-1.9 2.305 1.9a.677.677 0 0 0 .813 0l2.3-1.9 2.305 1.9a.677.677 0 0 0 .813 0l2.3-1.9 1.625 1.9a.681.681 0 0 0 .951-.138.688.688 0 0 0 .132-.4v-14.116a1.2 1.2 0 0 0-1.2-1.2zm12.34 10.9a.337.337 0 0 1-.337.337h-10.155a.342.342 0 0 1-.343-.337v-.674a.347.347 0 0 1 .343-.343h10.155a.342.342 0 0 1 .337.343zm0-3.461a.337.337 0 0 1-.337.337h-10.155a.342.342 0 0 1-.343-.337v-.674a.347.347 0 0 1 .343-.343h10.155a.342.342 0 0 1 .337.343zm0-3.461a.337.337 0 0 1-.337.337h-10.155a.342.342 0 0 1-.343-.337v-.674a.347.347 0 0 1 .343-.343h10.155a.342.342 0 0 1 .337.343z" transform="translate(.168) translate(-216.708 -1193.03)"/>
    </g>
</svg>
