<svg xmlns="http://www.w3.org/2000/svg" width="16.441" height="16" viewBox="0 0 16.441 16">
    <path fill="#fff" d="M2257.212-4920a4.261 4.261 0 0 1-2.532-.893 6.087 6.087 0 0 1-3.176.893 6.069 6.069 0 0 1-3.322-.978 5.771 5.771 0 0 1-2.15-2.518 6.705 6.705 0 0 0 .905.067 6.861 6.861 0 0 0 6.85-6.857 6.994 6.994 0 0 0-.038-.716 5.9 5.9 0 0 1 2.657 2.067 5.526 5.526 0 0 1 1.034 3.221 5.528 5.528 0 0 1-1.085 3.286 8.191 8.191 0 0 0 1.021 1.946.34.34 0 0 1 .044.31.233.233 0 0 1-.208.172zm-10.275-4.572a6.079 6.079 0 0 1-3.176-.892 4.26 4.26 0 0 1-2.533.892.232.232 0 0 1-.209-.172.341.341 0 0 1 .044-.31 8.366 8.366 0 0 0 1.021-1.947 5.532 5.532 0 0 1-1.084-3.285 5.572 5.572 0 0 1 1.739-4.041 6.019 6.019 0 0 1 4.2-1.673 6.018 6.018 0 0 1 4.2 1.673 5.571 5.571 0 0 1 1.739 4.041 5.571 5.571 0 0 1-1.739 4.041 6.015 6.015 0 0 1-4.202 1.673zm-1.4-4.494h-.017a.108.108 0 0 0-.079.042l-.357.468a.1.1 0 0 0 .007.142c.009.01.028.031.061.063a2 2 0 0 0 .161.129 2.288 2.288 0 0 0 .257.167 2.346 2.346 0 0 0 .352.154 2.217 2.217 0 0 0 .442.107v.606a.109.109 0 0 0 .033.078.105.105 0 0 0 .078.033h.467a.108.108 0 0 0 .08-.031.109.109 0 0 0 .031-.08v-.606a1.5 1.5 0 0 0 .9-.473 1.325 1.325 0 0 0 .345-.914 1.167 1.167 0 0 0-.044-.326 1.259 1.259 0 0 0-.109-.265.883.883 0 0 0-.184-.221 2.262 2.262 0 0 0-.215-.173 2.22 2.22 0 0 0-.262-.147c-.107-.052-.2-.093-.263-.122s-.167-.066-.281-.109l-.016-.006-.227-.09c-.061-.025-.132-.057-.21-.094a1.281 1.281 0 0 1-.194-.107 1.61 1.61 0 0 1-.137-.115.383.383 0 0 1-.1-.144.45.45 0 0 1-.03-.167.456.456 0 0 1 .208-.385.906.906 0 0 1 .538-.149 1.145 1.145 0 0 1 .3.041 1.561 1.561 0 0 1 .258.09 1.883 1.883 0 0 1 .2.11c.071.046.111.073.135.092l.051.042a.116.116 0 0 0 .071.027h.022a.094.094 0 0 0 .079-.055l.281-.506a.1.1 0 0 0-.018-.132c-.015-.016-.032-.031-.052-.048s-.07-.055-.135-.1a1.666 1.666 0 0 0-.22-.13 2.118 2.118 0 0 0-.3-.116 1.881 1.881 0 0 0-.383-.08v-.61a.107.107 0 0 0-.031-.08.109.109 0 0 0-.08-.032h-.467a.111.111 0 0 0-.078.033.106.106 0 0 0-.033.078v.624a1.6 1.6 0 0 0-.884.464 1.2 1.2 0 0 0-.34.84 1.225 1.225 0 0 0 .03.271 1.416 1.416 0 0 0 .073.23.824.824 0 0 0 .123.2 1.991 1.991 0 0 0 .15.17 1.177 1.177 0 0 0 .186.148c.088.058.148.1.2.123a2.3 2.3 0 0 0 .217.108c.086.039.16.07.213.092l.213.086c.12.047.213.085.277.113s.129.06.229.111a.928.928 0 0 1 .2.13.648.648 0 0 1 .116.145.356.356 0 0 1 .052.184.488.488 0 0 1-.213.423.838.838 0 0 1-.494.149 1.257 1.257 0 0 1-.257-.027 1.819 1.819 0 0 1-.842-.434l-.007-.007a.084.084 0 0 0-.073-.032z" transform="translate(-2241 4936)"/>
</svg>
