<svg xmlns="http://www.w3.org/2000/svg" width="179.908" height="217.395" viewBox="0 0 179.908 217.395">
    <defs>
        <style>
            .cls-2{fill:#f5a33d}
        </style>
    </defs>
    <g id="Onboarding_Patron_Image_3" transform="translate(393.296 -260.835)">
        <path id="Path_37" fill="#e8eaeb" d="M-302.506 333.835l51.619-51.619a73 73 0 0 0-103.238 0z"/>
        <circle id="Ellipse_1" cx="16.06" cy="16.06" r="16.06" class="cls-2" transform="translate(-379.176 333.356)"/>
        <circle id="Ellipse_54" cx="16.06" cy="16.06" r="16.06" class="cls-2" transform="translate(-259.176 380.356)"/>
        <g id="Group_53">
            <path id="Path_27" d="M-302.626 424.23l-38.184 38.184a54 54 0 0 0 76.368 0z" class="cls-2"/>
        </g>
        <path id="Path_32" fill="#7bd9d0" d="M-213.388 394.835a30 30 0 0 1-30 30 30 30 0 0 1-30-30z"/>
        <path id="Path_65" fill="#ff7900" d="M-333.3 350.6a30 30 0 0 1-30 30 30 30 0 0 1-30-30z"/>
    </g>
</svg>
