<svg xmlns="http://www.w3.org/2000/svg" id="Visa_Icon" width="30" height="16" viewBox="0 0 30 16">
    <defs>
        <style>
            .cls-1{fill:#1a1f71}
        </style>
    </defs>
    <g id="Payment_Option_1" transform="translate(4.464 5.18)">
        <path id="Path_229" d="M61.9 7.107L62.958.9h1.689l-1.058 6.207z" class="cls-1" transform="translate(-54.539 -.793)"/>
        <path id="Path_230" d="M90.078.262A4.211 4.211 0 0 0 88.567 0c-1.677 0-2.854.844-2.854 2.045-.012.892.844 1.391 1.486 1.689s.88.5.88.773c0 .416-.523.606-1.011.606a3.637 3.637 0 0 1-1.593-.321l-.238-.107L85 6.076a5.343 5.343 0 0 0 1.891.333c1.784 0 2.937-.832 2.949-2.117.012-.7-.44-1.249-1.415-1.689-.595-.285-.951-.476-.951-.773 0-.262.309-.535.963-.535a2.928 2.928 0 0 1 1.26.238l.155.071.226-1.342" class="cls-1" transform="translate(-74.892)"/>
        <path id="Path_231" d="M129.309 1H128a.847.847 0 0 0-.892.511L124.6 7.2h1.772s.285-.761.357-.928h2.164c.048.214.2.928.2.928h1.57L129.309 1m-2.081 4c.143-.357.678-1.736.678-1.736s.143-.357.226-.595l.119.535s.321 1.486.392 1.8z" class="cls-1" transform="translate(-109.783 -.881)"/>
        <path id="Path_232" d="M19.074.9l-1.665 4.233-.178-.856a4.8 4.8 0 0 0-2.331-2.6l1.51 5.434h1.8L20.869.9h-1.8" class="cls-1" transform="translate(-13.128 -.793)"/>
        <path id="Path_233" fill="#f7b700" d="M2.747.9H.024L0 1.031a5.6 5.6 0 0 1 4.114 3.246L3.52 1.423A.715.715 0 0 0 2.747.9" transform="translate(0 -.793)"/>
    </g>
    <g id="Rectangle_133" fill="none" stroke="#e8eaeb" stroke-width="2px">
        <rect width="30" height="16" stroke="none" rx="2"/>
        <rect width="28" height="14" x="1" y="1" rx="1"/>
    </g>
</svg>
